# xmcd
#
# Track frame offsets:
#	183
#	16340
#	28220
#	41488
#	55838
#	71973
#	81678
#	101465
#	113275
#	125950
#	137573
#	149695
#	164550
#	193115
#	209075
#	222325
#	234363
#
# Disc length: 3305 seconds
#
# Revision: 0
# Processed by: cddbd v1.5.2PL0 Copyright (c) Steve Scherf et al.
# Submitted via: audiograbber 1.83.01
#
DISCID=0c0ce711
DTITLE=Ray Charles - The Classic Years - Disc 2
DYEAR=1991
DGENRE=Blues
TTITLE0=Your Cheatin' Heart
TTITLE1=Don't Set Me Free
TTITLE2=Take These Chains From My Heart
TTITLE3=No One
TTITLE4=Without Love (There Is Nothing)
TTITLE5=Busted
TTITLE6=That Lucky Old Sun
TTITLE7=Baby Don't You Cry
TTITLE8=My Heart Cries For You
TTITLE9=My Baby Don;t Dig Me
TTITLE10=No One To Cry To
TTITLE11=Smack Dab In The Middle
TTITLE12=Makin' Whoopee
TTITLE13=Cry
TTITLE14=Crying Time
TTITLE15=Together Again
TTITLE16=Let's Go Get Stoned
EXTD=
EXTT0=
EXTT1=
EXTT2=
EXTT3=
EXTT4=
EXTT5=
EXTT6=
EXTT7=
EXTT8=
EXTT9=
EXTT10=
EXTT11=
EXTT12=
EXTT13=
EXTT14=
EXTT15=
EXTT16=
PLAYORDER=
